<mxfile host="app.diagrams.net" agent="Mozilla/5.0 (Windows NT 10.0; Win64; x64) AppleWebKit/537.36 (KHTML, like Gecko) Chrome/132.0.0.0 Safari/537.36" version="26.0.11">
  <diagram name="Page-1" id="BRtO-JxdkxZ65f_MX1fM">
    <mxGraphModel grid="1" page="1" gridSize="10" guides="1" tooltips="1" connect="1" arrows="1" fold="1" pageScale="1" pageWidth="850" pageHeight="1100" math="0" shadow="0">
      <root>
        <mxCell id="0" />
        <mxCell id="1" parent="0" />
        <mxCell id="nl3P_Xkl19Ft6Xcdl_mJ-1" value="" style="rounded=0;whiteSpace=wrap;html=1;" vertex="1" parent="1">
          <mxGeometry y="80" width="160" height="40" as="geometry" />
        </mxCell>
        <mxCell id="nl3P_Xkl19Ft6Xcdl_mJ-2" value="&lt;font style=&quot;font-size: 15px;&quot;&gt;Lietotājs&lt;/font&gt;" style="text;html=1;align=center;verticalAlign=middle;whiteSpace=wrap;rounded=0;" vertex="1" parent="1">
          <mxGeometry y="80" width="160" height="40" as="geometry" />
        </mxCell>
        <mxCell id="nl3P_Xkl19Ft6Xcdl_mJ-3" value="" style="rounded=0;whiteSpace=wrap;html=1;" vertex="1" parent="1">
          <mxGeometry x="320" y="80" width="160" height="40" as="geometry" />
        </mxCell>
        <mxCell id="nl3P_Xkl19Ft6Xcdl_mJ-4" value="&lt;font style=&quot;font-size: 15px;&quot;&gt;Programma&lt;/font&gt;" style="text;html=1;align=center;verticalAlign=middle;whiteSpace=wrap;rounded=0;" vertex="1" parent="1">
          <mxGeometry x="320" y="80" width="160" height="40" as="geometry" />
        </mxCell>
        <mxCell id="nl3P_Xkl19Ft6Xcdl_mJ-5" value="" style="rounded=0;whiteSpace=wrap;html=1;" vertex="1" parent="1">
          <mxGeometry x="640" y="80" width="160" height="40" as="geometry" />
        </mxCell>
        <mxCell id="nl3P_Xkl19Ft6Xcdl_mJ-6" value="&lt;font style=&quot;font-size: 15px;&quot;&gt;Tīkla lietotājs/upuris&lt;/font&gt;" style="text;html=1;align=center;verticalAlign=middle;whiteSpace=wrap;rounded=0;" vertex="1" parent="1">
          <mxGeometry x="640" y="80" width="160" height="40" as="geometry" />
        </mxCell>
        <mxCell id="nl3P_Xkl19Ft6Xcdl_mJ-8" value="" style="endArrow=none;dashed=1;html=1;rounded=0;entryX=0.5;entryY=1;entryDx=0;entryDy=0;" edge="1" parent="1" target="nl3P_Xkl19Ft6Xcdl_mJ-2">
          <mxGeometry width="50" height="50" relative="1" as="geometry">
            <mxPoint x="80" y="600" as="sourcePoint" />
            <mxPoint x="410" y="170" as="targetPoint" />
          </mxGeometry>
        </mxCell>
        <mxCell id="nl3P_Xkl19Ft6Xcdl_mJ-9" value="" style="endArrow=none;dashed=1;html=1;rounded=0;entryX=0.5;entryY=1;entryDx=0;entryDy=0;" edge="1" parent="1" target="nl3P_Xkl19Ft6Xcdl_mJ-4">
          <mxGeometry width="50" height="50" relative="1" as="geometry">
            <mxPoint x="400" y="600" as="sourcePoint" />
            <mxPoint x="399.55" y="120" as="targetPoint" />
          </mxGeometry>
        </mxCell>
        <mxCell id="nl3P_Xkl19Ft6Xcdl_mJ-10" value="" style="endArrow=none;dashed=1;html=1;rounded=0;entryX=0.5;entryY=1;entryDx=0;entryDy=0;" edge="1" parent="1" target="nl3P_Xkl19Ft6Xcdl_mJ-6">
          <mxGeometry width="50" height="50" relative="1" as="geometry">
            <mxPoint x="720" y="600" as="sourcePoint" />
            <mxPoint x="719.55" y="120" as="targetPoint" />
          </mxGeometry>
        </mxCell>
        <mxCell id="nl3P_Xkl19Ft6Xcdl_mJ-11" value="&lt;b&gt;&lt;font style=&quot;font-size: 14px;&quot;&gt;Viltus piekļuves punkta (Evil Twin AP) uzbrukuma veikšana&lt;/font&gt;&lt;/b&gt;" style="text;html=1;align=center;verticalAlign=middle;whiteSpace=wrap;rounded=0;" vertex="1" parent="1">
          <mxGeometry x="80" y="20" width="640" height="40" as="geometry" />
        </mxCell>
        <mxCell id="nl3P_Xkl19Ft6Xcdl_mJ-12" value="" style="endArrow=classic;html=1;rounded=0;" edge="1" parent="1">
          <mxGeometry width="50" height="50" relative="1" as="geometry">
            <mxPoint x="80" y="160" as="sourcePoint" />
            <mxPoint x="400" y="160" as="targetPoint" />
          </mxGeometry>
        </mxCell>
        <mxCell id="nl3P_Xkl19Ft6Xcdl_mJ-13" value="Nosūta kāda nosaukuma AP viltot" style="text;html=1;align=center;verticalAlign=middle;whiteSpace=wrap;rounded=0;" vertex="1" parent="1">
          <mxGeometry x="80" y="130" width="320" height="30" as="geometry" />
        </mxCell>
        <mxCell id="nl3P_Xkl19Ft6Xcdl_mJ-14" value="" style="endArrow=classic;html=1;rounded=0;flipV=1;flipH=1;" edge="1" parent="1">
          <mxGeometry width="50" height="50" relative="1" as="geometry">
            <mxPoint x="400" y="440" as="sourcePoint" />
            <mxPoint x="720" y="440" as="targetPoint" />
          </mxGeometry>
        </mxCell>
        <mxCell id="nl3P_Xkl19Ft6Xcdl_mJ-15" value="Mēģina pievienoties pie viltus AP" style="text;html=1;align=center;verticalAlign=middle;whiteSpace=wrap;rounded=0;flipV=1;flipH=1;" vertex="1" parent="1">
          <mxGeometry x="400" y="410" width="320" height="30" as="geometry" />
        </mxCell>
        <mxCell id="nl3P_Xkl19Ft6Xcdl_mJ-17" value="" style="endArrow=classic;html=1;rounded=0;" edge="1" parent="1">
          <mxGeometry width="50" height="50" relative="1" as="geometry">
            <mxPoint x="400" y="480" as="sourcePoint" />
            <mxPoint x="720" y="480" as="targetPoint" />
          </mxGeometry>
        </mxCell>
        <mxCell id="nl3P_Xkl19Ft6Xcdl_mJ-18" value="Nosūta veiksmīgu asociāciju" style="text;html=1;align=center;verticalAlign=middle;whiteSpace=wrap;rounded=0;" vertex="1" parent="1">
          <mxGeometry x="400" y="450" width="320" height="30" as="geometry" />
        </mxCell>
        <mxCell id="nl3P_Xkl19Ft6Xcdl_mJ-19" value="" style="endArrow=classic;startArrow=classic;html=1;rounded=0;" edge="1" parent="1">
          <mxGeometry width="50" height="50" relative="1" as="geometry">
            <mxPoint x="400" y="560" as="sourcePoint" />
            <mxPoint x="720" y="560" as="targetPoint" />
          </mxGeometry>
        </mxCell>
        <mxCell id="nl3P_Xkl19Ft6Xcdl_mJ-20" value="Programma veic upura pakešu maršrutēšnu" style="text;html=1;align=center;verticalAlign=middle;whiteSpace=wrap;rounded=0;" vertex="1" parent="1">
          <mxGeometry x="400" y="530" width="320" height="30" as="geometry" />
        </mxCell>
        <mxCell id="nl3P_Xkl19Ft6Xcdl_mJ-22" value="" style="rounded=1;whiteSpace=wrap;html=1;" vertex="1" parent="1">
          <mxGeometry x="340" y="170" width="120" height="60" as="geometry" />
        </mxCell>
        <mxCell id="nl3P_Xkl19Ft6Xcdl_mJ-23" value="Pārbauda vai AP ar piedāvāto nosaukumu eksistē" style="text;html=1;align=center;verticalAlign=middle;whiteSpace=wrap;rounded=0;" vertex="1" parent="1">
          <mxGeometry x="340" y="170" width="120" height="60" as="geometry" />
        </mxCell>
        <mxCell id="nl3P_Xkl19Ft6Xcdl_mJ-25" value="" style="rounded=1;whiteSpace=wrap;html=1;" vertex="1" parent="1">
          <mxGeometry x="340" y="250" width="120" height="60" as="geometry" />
        </mxCell>
        <mxCell id="nl3P_Xkl19Ft6Xcdl_mJ-26" value="Ievāc info par AP, no tā beacon paketēm" style="text;html=1;align=center;verticalAlign=middle;whiteSpace=wrap;rounded=0;" vertex="1" parent="1">
          <mxGeometry x="340" y="250" width="120" height="60" as="geometry" />
        </mxCell>
        <mxCell id="nl3P_Xkl19Ft6Xcdl_mJ-27" value="Ja eksistē" style="shape=umlFrame;whiteSpace=wrap;html=1;pointerEvents=0;" vertex="1" parent="1">
          <mxGeometry x="270" y="240" width="220" height="80" as="geometry" />
        </mxCell>
        <mxCell id="nl3P_Xkl19Ft6Xcdl_mJ-28" value="" style="rounded=1;whiteSpace=wrap;html=1;" vertex="1" parent="1">
          <mxGeometry x="340" y="330" width="120" height="60" as="geometry" />
        </mxCell>
        <mxCell id="nl3P_Xkl19Ft6Xcdl_mJ-29" value="Izveido savu viltoto AP. Sāk pārraidīt beacon paketes" style="text;html=1;align=center;verticalAlign=middle;whiteSpace=wrap;rounded=0;" vertex="1" parent="1">
          <mxGeometry x="340" y="330" width="120" height="60" as="geometry" />
        </mxCell>
        <mxCell id="nl3P_Xkl19Ft6Xcdl_mJ-30" value="" style="endArrow=classic;html=1;rounded=0;" edge="1" parent="1">
          <mxGeometry width="50" height="50" relative="1" as="geometry">
            <mxPoint x="400" y="520" as="sourcePoint" />
            <mxPoint x="80" y="520" as="targetPoint" />
          </mxGeometry>
        </mxCell>
        <mxCell id="nl3P_Xkl19Ft6Xcdl_mJ-31" value="Paziņo, ka tīkla lietotājs ar doto MAC adresi ir pievienojies" style="text;html=1;align=center;verticalAlign=middle;whiteSpace=wrap;rounded=0;flipV=1;flipH=1;" vertex="1" parent="1">
          <mxGeometry x="80" y="490" width="320" height="30" as="geometry" />
        </mxCell>
      </root>
    </mxGraphModel>
  </diagram>
</mxfile>
